<svg xmlns="http://www.w3.org/2000/svg" width="172.37" height="35" viewBox="0 0 172.37 35"><rect class="svg__rect" x="0" y="0" width="115.31" height="35" fill="#31C4F3" data-darkreader-inline-fill="" style="--darkreader-inline-fill:#0a85ac;"/><rect class="svg__rect" x="113.31" y="0" width="59.06000000000002" height="35" fill="#389AD5" data-darkreader-inline-fill="" style="--darkreader-inline-fill:#2272a2;"/><path class="svg__text" d="M15.69 22L14.22 22L14.22 13.47L16.14 13.47L18.60 20.01L21.06 13.47L22.97 13.47L22.97 22L21.49 22L21.49 19.19L21.64 15.43L19.12 22L18.06 22L15.55 15.43L15.69 19.19L15.69 22ZM28.49 22L26.95 22L30.17 13.47L31.50 13.47L34.73 22L33.18 22L32.49 20.01L29.18 20.01L28.49 22ZM30.83 15.28L29.60 18.82L32.07 18.82L30.83 15.28ZM41.14 22L38.69 22L38.69 13.47L41.21 13.47Q42.34 13.47 43.21 13.97Q44.09 14.48 44.57 15.40Q45.05 16.33 45.05 17.52L45.05 17.52L45.05 17.95Q45.05 19.16 44.57 20.08Q44.08 21.00 43.19 21.50Q42.30 22 41.14 22L41.14 22ZM40.17 14.66L40.17 20.82L41.14 20.82Q42.30 20.82 42.93 20.09Q43.55 19.36 43.56 17.99L43.56 17.99L43.56 17.52Q43.56 16.13 42.96 15.40Q42.35 14.66 41.21 14.66L41.21 14.66L40.17 14.66ZM55.09 22L49.51 22L49.51 13.47L55.05 13.47L55.05 14.66L51.00 14.66L51.00 17.02L54.50 17.02L54.50 18.19L51.00 18.19L51.00 20.82L55.09 20.82L55.09 22ZM66.65 22L64.68 13.47L66.15 13.47L67.47 19.88L69.10 13.47L70.34 13.47L71.96 19.89L73.27 13.47L74.74 13.47L72.77 22L71.35 22L69.73 15.77L68.07 22L66.65 22ZM80.38 22L78.90 22L78.90 13.47L80.38 13.47L80.38 22ZM86.87 14.66L84.23 14.66L84.23 13.47L91.00 13.47L91.00 14.66L88.34 14.66L88.34 22L86.87 22L86.87 14.66ZM96.24 22L94.75 22L94.75 13.47L96.24 13.47L96.24 17.02L100.05 17.02L100.05 13.47L101.53 13.47L101.53 22L100.05 22L100.05 18.21L96.24 18.21L96.24 22Z" fill="#000000" data-darkreader-inline-fill="" style="--darkreader-inline-fill:#000000;"/><path class="svg__text" d="M130.08 22L126.49 13.60L129.06 13.60L131.34 19.07L133.67 13.60L136.02 13.60L132.42 22L130.08 22ZM144.71 22L140.17 22L140.17 13.60L144.47 13.60Q146.08 13.60 146.92 14.19Q147.76 14.79 147.76 15.79L147.76 15.79Q147.76 16.39 147.46 16.87Q147.17 17.34 146.63 17.62L146.63 17.62Q147.35 17.87 147.76 18.41Q148.16 18.94 148.16 19.70L148.16 19.70Q148.16 20.80 147.28 21.40Q146.39 22 144.71 22L144.71 22ZM142.53 18.58L142.53 20.28L144.52 20.28Q145.77 20.28 145.77 19.43L145.77 19.43Q145.77 18.58 144.52 18.58L144.52 18.58L142.53 18.58ZM142.53 15.31L142.53 16.94L144.16 16.94Q145.36 16.94 145.36 16.12L145.36 16.12Q145.36 15.31 144.16 15.31L144.16 15.31L142.53 15.31ZM152.29 21.24L152.29 21.24L153.07 19.49Q153.64 19.86 154.38 20.09Q155.12 20.32 155.85 20.32L155.85 20.32Q157.21 20.32 157.22 19.64L157.22 19.64Q157.22 19.28 156.83 19.11Q156.44 18.93 155.57 18.74L155.57 18.74Q154.62 18.53 153.99 18.30Q153.35 18.06 152.90 17.55Q152.44 17.03 152.44 16.16L152.44 16.16Q152.44 15.39 152.86 14.77Q153.28 14.15 154.11 13.79Q154.95 13.43 156.16 13.43L156.16 13.43Q156.98 13.43 157.79 13.62Q158.59 13.80 159.21 14.17L159.21 14.17L158.48 15.93Q157.28 15.28 156.14 15.28L156.14 15.28Q155.44 15.28 155.11 15.49Q154.79 15.70 154.79 16.04L154.79 16.04Q154.79 16.37 155.17 16.54Q155.56 16.71 156.41 16.89L156.41 16.89Q157.37 17.10 158.00 17.33Q158.63 17.56 159.09 18.07Q159.55 18.58 159.55 19.46L159.55 19.46Q159.55 20.21 159.14 20.83Q158.72 21.44 157.88 21.80Q157.03 22.17 155.83 22.17L155.83 22.17Q154.81 22.17 153.85 21.92Q152.89 21.67 152.29 21.24Z" fill="#FFFFFF" x="126.31" data-darkreader-inline-fill="" style="--darkreader-inline-fill:#181a1b;"/></svg>